<svg width="61" height="65" xmlns="http://www.w3.org/2000/svg"><g fill="none" fill-rule="evenodd"><path d="M52.623 49.663c4.871-5.248 7.014-14.314 7.014-22.086 0-16.201-12.978-26.187-28.99-26.187-16.009 0-28.988 9.986-28.988 26.187 0 8.326 1.502 16.834 7.006 22.174 0 0 2 6.467 2 6.647 0 3.837.648 6.991 4.438 6.991 3.407 0 6.987-.62 7.52-3.916.535 3.296 4.68 3.916 8.086 3.916 3.409 0 6.463-.703 6.997-3.999.536 3.296 4.163 3.999 7.571 3.999 3.791 0 5.346-3.161 5.346-6.997 0-.181 2-6.729 2-6.729" fill="#D65041"/><path d="M52.623 49.663c4.871-5.248 7.014-14.314 7.014-22.086 0-16.201-12.978-26.187-28.99-26.187-16.009 0-28.988 9.986-28.988 26.187 0 8.326 1.502 16.834 7.006 22.174 0 0 2 6.467 2 6.647 0 3.837.648 6.991 4.438 6.991 3.407 0 6.987-.62 7.52-3.916.535 3.296 4.68 3.916 8.086 3.916 3.409 0 6.463-.703 6.997-3.999.536 3.296 4.163 3.999 7.571 3.999 3.791 0 5.346-3.161 5.346-6.997 0-.181 2-6.729 2-6.729zm-38-18.273l10 10-10-10zm10 0l-10 10 10-10zm11 0l10 10-10-10zm10 0l-10 10 10-10z" stroke="#1C1B19" stroke-width="2" stroke-linejoin="round"/></g></svg>