<svg width="58" height="68" xmlns="http://www.w3.org/2000/svg"><g fill="none" fill-rule="evenodd"><path d="M26.417 55.213L28 46.088h2l1.583 9.125h-5.166zM34 39.088L31 22c0-1.104.104-2-1-2h-2c-1.105 0-1 .896-1 2l-3 17.088-6 25a2 2 0 0 0 2 2h4l1.583-6h6.834l1.583 6h4a2 2 0 0 0 2-2l-6-25z" fill="#FBE0B8"/><path d="M26.417 55.213L28 46.088h2l1.583 9.125h-5.166zM34 39.088L31 22c0-1.104.104-2-1-2h-2c-1.105 0-1 .896-1 2l-3 17.088-6 25a2 2 0 0 0 2 2h4l1.583-6h6.834l1.583 6h4a2 2 0 0 0 2-2l-6-25z" stroke="#1C1B19" stroke-width="2" stroke-linejoin="round"/><path d="M34 20a5 5 0 0 1-5 5 5 5 0 1 1 0-10 5 5 0 0 1 5 5" fill="#DB4F4E"/><path d="M34 20a5 5 0 0 1-5 5 5 5 0 1 1 0-10 5 5 0 0 1 5 5z" stroke="#1C1B19" stroke-width="2" stroke-linejoin="round"/><path stroke="#1C1B19" stroke-width=".75" fill="#FEC055" stroke-linejoin="round" d="M14.987 32.205L1.75 39.3l7.398-7.195-2.345-1.985 13.13-7.628-7.61 7.52zM10.723 12.156L.831.853l8.676 5.59 1.406-2.731L21.3 14.789l-9.04-5.722zM43.013 32.205L56.25 39.3l-7.398-7.195 2.345-1.985-13.13-7.628 7.61 7.52zM47.277 12.156L57.169.853l-8.676 5.59-1.406-2.731L36.7 14.789l9.04-5.722z"/></g></svg>