<svg width="47" height="65" xmlns="http://www.w3.org/2000/svg"><g fill="none" fill-rule="evenodd"><path stroke="#1C1B19" stroke-width="2" d="M27.84 7.37l-18 16 26.5 30.5"/><path d="M33.84 7.37c0 3.314-2.69 6-6 6-3.32 0-6-2.686-6-6 0-3.313 2.68-6 6-6 3.31 0 6 2.687 6 6" fill="#C73232"/><path d="M33.84 7.37c0 3.314-2.69 6-6 6-3.32 0-6-2.686-6-6 0-3.313 2.68-6 6-6 3.31 0 6 2.687 6 6z" stroke="#1C1B19" stroke-width="2"/><path d="M17.84 23.37a8 8 0 1 1-16 0 8 8 0 1 1 16 0" fill="#E67437"/><path d="M17.84 23.37a8 8 0 1 1-16 0 8 8 0 1 1 16 0z" stroke="#1C1B19" stroke-width="2"/><path d="M45.84 53.87c0 5.246-4.26 9.5-9.5 9.5-5.25 0-9.5-4.254-9.5-9.5s4.25-9.5 9.5-9.5c5.24 0 9.5 4.254 9.5 9.5" fill="#F5BA58"/><path d="M45.84 53.87c0 5.246-4.26 9.5-9.5 9.5-5.25 0-9.5-4.254-9.5-9.5s4.25-9.5 9.5-9.5c5.24 0 9.5 4.254 9.5 9.5z" stroke="#1C1B19" stroke-width="2"/></g></svg>