<svg width="64" height="48" xmlns="http://www.w3.org/2000/svg"><g fill="none" fill-rule="evenodd"><path d="M63 40c0 1.105-.89 2-2 2l-20 5-20-6-18 5c-1.1 0-2-.895-2-2V8c0-1.104.9-2 2-2l18-5 20 6 20-5c1.11 0 2 .896 2 2v36" fill="#64A099"/><path d="M63 40c0 1.105-.89 2-2 2l-20 5-20-6-18 5c-1.1 0-2-.895-2-2V8c0-1.104.9-2 2-2l18-5 20 6 20-5c1.11 0 2 .896 2 2v36z" stroke="#1C1B19" stroke-width="2" stroke-linejoin="round"/><path fill="#4B7C6F" d="M41 47l-20-6V1l20 6v40"/><path stroke="#1C1B19" stroke-width="2" stroke-linejoin="round" d="M41 47l-20-6V1l20 6z"/></g></svg>