<svg width="64" height="48" xmlns="http://www.w3.org/2000/svg"><g fill="none" fill-rule="evenodd"><path d="M63 40c0 1.105-.89 2-2 2l-20 5-20-6-18 5c-1.1 0-2-.895-2-2V8c0-1.104.9-2 2-2l18-5 20 6 20-5c1.11 0 2 .896 2 2v36" fill="#64A099"/><path d="M63 40c0 1.105-.89 2-2 2l-20 5-20-6-18 5c-1.1 0-2-.895-2-2V8c0-1.104.9-2 2-2l18-5 20 6 20-5c1.11 0 2 .896 2 2v36z" stroke="#1C1B19" stroke-width="2" stroke-linejoin="round"/><path fill="#4B7C6F" d="M41 47l-20-6V1l20 6v40"/><path stroke="#1C1B19" stroke-width="2" stroke-linejoin="round" d="M41 47l-20-6V1l20 6z"/><path d="M11.61 18.717c-2.08 3.355-4.39 15.026-1.21 15.895 2.147 1.054 10 1.054 11-10.612.227-2.65 17-5.283 19.6 10.612C41.387 36.981 58.4 47 62 24" stroke="#1C1B19" stroke-width="2" stroke-linejoin="round" stroke-dasharray="3.818,3.818"/><path d="M12 13l6-6m-6 0l6 6" stroke="#EB5453" stroke-width="2" stroke-linejoin="round"/></g></svg>