<?xml version="1.0" encoding="UTF-8"?>
<svg width="65px" height="60px" viewBox="0 0 65 60" version="1.1" xmlns="http://www.w3.org/2000/svg" xmlns:xlink="http://www.w3.org/1999/xlink">
    <!-- Generator: Sketch 55.2 (78181) - https://sketchapp.com -->
    <title>object-unselected</title>
    <desc>Created with Sketch.</desc>
    <g id="Icons" stroke="none" stroke-width="1" fill="none" fill-rule="evenodd">
        <g id="Artboard" transform="translate(-383.000000, -296.000000)" stroke="#231F20" stroke-width="2">
            <g id="object-unselected" transform="translate(384.000000, 297.000000)">
                <path d="M51.4,27.4 C51.4,28.5 50.5,26.4 49.4,26.4 L13.3,26.4 C12.2,26.4 11.3,28.5 11.3,27.4 L11.3,2.4 C11.3,1.3 12.2,0.4 13.3,0.4 L49.4,0.4 C50.5,0.4 51.4,1.3 51.4,2.4 L51.4,27.4 Z" id="Path" fill="#FFE3BD" fill-rule="nonzero" opacity="0.0238792783"></path>
                <path d="M55.8,20.4 C55.8,19.3 55,18.4 54,18.4 L40.7,18.4 C39.3,22.5 35.7,25.4 31.5,25.4 C27.3,25.4 23.7,22.5 22.3,18.4 L9,18.4 C8,18.4 7.2,19.3 7.2,20.4 L3.6,31.4 C3.6,32.5 4.4,33.4 5.4,33.4 L57.8,33.4 C58.8,33.4 59.6,32.5 59.6,31.4 L55.8,20.4 Z" id="Path" fill="#EB5453" fill-rule="nonzero" stroke-linejoin="round"></path>
                <path d="M59.4,55.4 C59.4,56.5 58.6,57.4 57.6,57.4 L5.2,57.4 C4.2,57.4 3.4,56.5 3.4,55.4 L3.4,32.4 C3.4,31.3 4.2,30.4 5.2,30.4 L57.6,30.4 C58.6,30.4 59.4,31.3 59.4,32.4 L59.4,55.4 Z" id="Path" fill="#EB5453" fill-rule="nonzero" stroke-linejoin="round"></path>
                <path d="M56.4,41 C56.4,39 55.7,37.4 54.8,37.4 L8,37.4 C7.1,37.4 6.4,39 6.4,41 L6.4,49.9 C6.4,51.9 7.1,53.5 8,53.5 L54.8,53.5 C55.7,53.5 56.4,51.9 56.4,49.9 L56.4,41 Z" id="Path" fill="#BE2B34" fill-rule="nonzero" stroke-linejoin="round"></path>
                <path d="M4.4,34.4 L15.4,34.4" id="Path" stroke-linejoin="round"></path>
                <path d="M18.4,51.4 L40.4,51.4" id="Path" stroke-linejoin="round"></path>
                <path d="M14.4,48.4 L18.4,48.4" id="Path" stroke-linejoin="round"></path>
                <path d="M20.4,48.4 L24.4,48.4" id="Path" stroke-linejoin="round"></path>
                <path d="M26.4,48.4 L30.4,48.4" id="Path" stroke-linejoin="round"></path>
                <path d="M32.4,48.4 L36.4,48.4" id="Path" stroke-linejoin="round"></path>
                <path d="M38.4,48.4 L42.4,48.4" id="Path" stroke-linejoin="round"></path>
                <path d="M44.4,48.4 L48.4,48.4" id="Path" stroke-linejoin="round"></path>
                <path d="M11.4,45.4 L15.4,45.4" id="Path" stroke-linejoin="round"></path>
                <path d="M47.4,45.4 L51.4,45.4" id="Path" stroke-linejoin="round"></path>
                <path d="M17.4,45.4 L21.4,45.4" id="Path" stroke-linejoin="round"></path>
                <path d="M23.4,45.4 L27.4,45.4" id="Path" stroke-linejoin="round"></path>
                <path d="M29.4,45.4 L33.4,45.4" id="Path" stroke-linejoin="round"></path>
                <path d="M35.4,45.4 L39.4,45.4" id="Path" stroke-linejoin="round"></path>
                <path d="M41.4,45.4 L45.4,45.4" id="Path" stroke-linejoin="round"></path>
                <path d="M8.4,42.4 L12.4,42.4" id="Path" stroke-linejoin="round"></path>
                <path d="M44.4,42.4 L48.4,42.4" id="Path" stroke-linejoin="round"></path>
                <path d="M50.4,42.4 L54.4,42.4" id="Path" stroke-linejoin="round"></path>
                <path d="M14.4,42.4 L18.4,42.4" id="Path" stroke-linejoin="round"></path>
                <path d="M20.4,42.4 L24.4,42.4" id="Path" stroke-linejoin="round"></path>
                <path d="M26.4,42.4 L30.4,42.4" id="Path" stroke-linejoin="round"></path>
                <path d="M32.4,42.4 L36.4,42.4" id="Path" stroke-linejoin="round"></path>
                <path d="M38.4,42.4 L42.4,42.4" id="Path" stroke-linejoin="round"></path>
                <path d="M17.4,8.4 L34.4,8.4" id="Path" opacity="0" stroke-linejoin="round"></path>
                <path d="M17.4,14.4 L38.4,14.4" id="Path" opacity="0" stroke-linejoin="round"></path>
                <path d="M22.4,19.4 L34.4,19.4" id="Path" stroke-linejoin="round"></path>
                <rect id="Rectangle" fill="#FEC055" fill-rule="nonzero" x="4.4" y="17.4" width="58" height="4"></rect>
                <rect id="Rectangle" fill="#FEC055" fill-rule="nonzero" x="58.4" y="16.4" width="4" height="6"></rect>
                <polyline id="Path" points="4.4 19.4 0.4 19.4 0.4 25.4"></polyline>
            </g>
        </g>
    </g>
</svg>