<svg width="65" height="60" xmlns="http://www.w3.org/2000/svg"><g stroke="#231F20" stroke-width="2" fill="none" fill-rule="evenodd"><path d="M52.4 28.4c0 1.1-.9-1-2-1H14.3c-1.1 0-2 2.1-2 1v-25c0-1.1.9-2 2-2h36.1c1.1 0 2 .9 2 2v25z" fill="#FFE3BD" fill-rule="nonzero"/><path d="M56.8 21.4c0-1.1-.8-2-1.8-2H41.7c-1.4 4.1-5 7-9.2 7-4.2 0-7.8-2.9-9.2-7H10c-1 0-1.8.9-1.8 2l-3.6 11c0 1.1.8 2 1.8 2h52.4c1 0 1.8-.9 1.8-2l-3.8-11z" fill="#EB5453" fill-rule="nonzero" stroke-linejoin="round"/><path d="M60.4 56.4c0 1.1-.8 2-1.8 2H6.2c-1 0-1.8-.9-1.8-2v-23c0-1.1.8-2 1.8-2h52.4c1 0 1.8.9 1.8 2v23z" fill="#EB5453" fill-rule="nonzero" stroke-linejoin="round"/><path d="M57.4 42c0-2-.7-3.6-1.6-3.6H9c-.9 0-1.6 1.6-1.6 3.6v8.9c0 2 .7 3.6 1.6 3.6h46.8c.9 0 1.6-1.6 1.6-3.6V42z" fill="#BE2B34" fill-rule="nonzero" stroke-linejoin="round"/><path d="M5.4 35.4h11M19.4 52.4h22M15.4 49.4h4M21.4 49.4h4M27.4 49.4h4M33.4 49.4h4M39.4 49.4h4M45.4 49.4h4M12.4 46.4h4M48.4 46.4h4M18.4 46.4h4M24.4 46.4h4M30.4 46.4h4M36.4 46.4h4M42.4 46.4h4M9.4 43.4h4M45.4 43.4h4M51.4 43.4h4M15.4 43.4h4M21.4 43.4h4M27.4 43.4h4M33.4 43.4h4M39.4 43.4h4M18.4 9.4h17M18.4 15.4h21M23.4 20.4h12" stroke-linejoin="round"/><path fill="#FEC055" fill-rule="nonzero" d="M5.4 18.4h58v4h-58z"/><path fill="#FEC055" fill-rule="nonzero" d="M59.4 17.4h4v6h-4z"/><path d="M5.4 20.4h-4v6"/></g></svg>