<svg width="62" height="66" xmlns="http://www.w3.org/2000/svg"><g transform="translate(1 1)" stroke="#231F20" stroke-width="2" fill="none" fill-rule="evenodd" stroke-linejoin="round"><path d="M60 27.5c0-13.3-13.4-27-30-27S0 14.2 0 27.5c0 14 11 19 11 23v11c0 1.1.9 2 2 2h33c1.1 0 2-.9 2-2v-11c0-4 12-7 12-23z" fill="#EB5453" fill-rule="nonzero"/><circle fill="#FEC055" fill-rule="nonzero" cx="19" cy="30.5" r="6"/><circle fill="#FEC055" fill-rule="nonzero" cx="41" cy="30.5" r="6"/><path d="M18 53.5v10M41 53.5v10M34 53.5v10M25 53.5v10"/></g></svg>