<svg width="45" height="64" xmlns="http://www.w3.org/2000/svg"><g fill="none" fill-rule="evenodd"><path d="M25 32c0 14.912 35 27-2 27s-2-12.088-2-27-35-27 2-27 2 12.088 2 27" fill="#F3DF9D"/><path d="M25 32c0 14.912 35 27-2 27s-2-12.088-2-27-35-27 2-27 2 12.088 2 27z" stroke="#1C1B19" stroke-width="2"/><path d="M44 4a2 2 0 0 1-2 2H3a2 2 0 0 1-2-2V3a2 2 0 0 1 2-2h39a2 2 0 0 1 2 2v1" fill="#34949C"/><path d="M44 4a2 2 0 0 1-2 2H3a2 2 0 0 1-2-2V3a2 2 0 0 1 2-2h39a2 2 0 0 1 2 2v1z" stroke="#1C1B19" stroke-width="2"/><path d="M44 61a2 2 0 0 1-2 2H3a2 2 0 0 1-2-2v-1a2 2 0 0 1 2-2h39a2 2 0 0 1 2 2v1" fill="#34949C"/><path d="M44 61a2 2 0 0 1-2 2H3a2 2 0 0 1-2-2v-1a2 2 0 0 1 2-2h39a2 2 0 0 1 2 2v1zM5 6v52V6zm36 0v52V6z" stroke="#1C1B19" stroke-width="2"/></g></svg>