<svg width="662" height="216" xmlns="http://www.w3.org/2000/svg"><g fill="none" fill-rule="evenodd"><path d="M412.099 212.973c-10.903-.54-5.75-.54-5.75-7.123 27.284 0 118.308-29.982 137.84-41.581 27.464 16.839 90.028 31.886 96.22 41.58 6.191 9.695-217.407 7.664-228.31 7.124z" stroke="#979797" fill="#F3F3F3"/><path d="M543.547 164.699l84.317 47.615c6 .794 10.69.275 14.07-1.558-.653-4.448-2.63-6.924-8.89-9.76-7.608-3.448-26.448-10.387-42.007-15.92-24.33-8.938-47.49-20.377-47.49-20.377z" fill="#D8D8D8"/><path d="M506.528 189.629l-4.17-1.018 11.804-174.808 4.17 1.019-2.66 38.04c5.198-11.847 12.286-21.307 21.263-28.377 9.215-6.789 18.683-9.843 28.403-9.164l8.826.617-1.275 18.228c-.767-.053-34.863-26.709-57.217 25.164l-9.144 130.299z" fill="#A60013" fill-rule="nonzero"/><path d="M565.079 135.418l-9.901 11.686c-2.29 3.39-3.434 6.992-3.434 10.809 0 3.816 2.223 12.492 6.668 26.029l2.053 5.994c-1.077 3.997-3.984 3.997-8.72 0-4.738-3.996-4.738-1.257 0 8.217l19.395 3.164 9.125-9.294-9.125-14.04v-13.774l9.125-6.296c10.214 9.407 16.915 16.097 20.102 20.07 3.188 3.972 8.206 11.75 15.053 23.334l-8.722-3.164-2.424 3.164 8.553 6.601h15.456l4.68-6.6-4.68-5.423 4.68-3.872-8.283-5.724-11.853-20.002-6.129-2.088-2.424-23.099v-13.166l-3.907-8.493-35.288 15.967zM533.593 91.345l1.222 3.753 4.187-3.753v1.877l6.327 1.876 4.52-9.045-1.402-8.602z" fill="#000"/><path stroke="#000" fill="#FFF" d="M514.028 97.2l-1.7-2.906-5.027 1.453L505 99.125v5.488l4.514 2.053h2.814zM512.399 119.45h-4.992L505 114.686v-5.222l2.407-2.797h4.992l1.629 5.31v4.425z"/><path stroke="#000" fill="#CA881C" d="M511.134 119.45l6.416 4.031 5.256 1.54 12.09-2.785 10.603-4.666 17.612-12.515-3.063-10.761-6.903-2.691-13.948 12.143-14.514 6.885h-10.655z"/><path stroke="#000" fill="#F5A623" d="M548.192 76.646l-4.02 14.957-7.05 2.69 2.075 9.453 6.904 9.312 2.09 10.264 3.591 3.947 5.823 1.116v3.982l5.506 3.168 6.141 2.036 4.043 9.31 21.375-14.514h12.408l-4.885-14.727-16.78-13.894-6.655-6.545L563.11 84.47l-8.869-1.93z"/><path d="M532.603 92.685c.97.286 6.167-5.06 15.589-16.039l-4.805-3.167L534.896 71l-5.593 3.894c-.635 1.622-.953 3.614-.953 5.975 0 3.542 2.046 5.3.953 7.099.38 3.6 2.671 4.533 3.3 4.717z" stroke="#000" fill="#D50208"/><path d="M515.275 95.55l-4.14 5.994 2.07 8.014 12.071 3.974h13.84l26.063-11.988c2.662-.9 4.303-3.083 4.924-6.548.931-5.196-.323-8.438-1.86-10.558-1.536-2.12-3.563-2.902-5.59-3.569-1.351-.445-3.445.256-6.28 2.102l-6.78 6.586-10.477 7.644-10.472 2.087-13.369-3.738z" stroke="#000" fill="#F5A623"/><path stroke="#000" stroke-linejoin="round" d="M562.593 129.888l11.791-12.437 3.129 6.218-9.808 9.456-1.587 1.53z"/><path stroke="#000" stroke-linejoin="round" d="M575.58 119.571l9.462 8.246-9.463 12.027-7.874-6.72 9.808-9.455z"/><path fill="#CA881C" d="M558.139 127.947l15.704-11.945-21.664 10.896zM545.36 111.252l22.345-10.309-20.127 17.047-1.05-5.194z"/><path d="M511.264 184.184c-9.65-4.285-22.905-3.503-39.768 2.346-86.183 11.974-256.851-29.428-388.707-4.247C44.125 182.283 0 212.703 0 216c225.41-.475 464.747-.475 662 0 0-13-13.372-7.435-25.634-11.393-12.262-3.958-49.197.366-60.826-6.103-11.628-6.47-34.706-17.478-38.739-11.974-2.689 3.67-5.673 2.254-8.952-4.247l-16.585 1.9z" stroke="#979797" fill="#F3F3F3"/><path fill="#D8D8D8" d="M56 201h426l-213-13z"/><path d="M56 201v-10.629l15.057-3.542V91.17L56 87.63v-9.743L89.657 77h18.6c13.109 0 23.176 3.248 30.203 9.743 7.027 6.495 10.54 15.352 10.54 26.571 0 13.581-4.163 23.915-12.489 31-8.325 7.086-20.105 10.629-35.34 10.629H89.657v31.886l15.057 3.542V201H56zM89 91v50h11.587c19.609 0 29.413-8.333 29.413-25 0-7.381-2.02-13.393-6.06-18.036-4.041-4.643-9.746-6.964-17.114-6.964H89zm75 49.422c0-9.955 1.335-18.963 4.004-27.022 2.67-8.06 6.555-14.963 11.656-20.711 5.101-5.748 11.181-10.133 18.24-13.156C204.959 76.511 212.818 75 221.479 75c8.66 0 16.43 1.452 23.312 4.356 6.88 2.903 12.723 7.081 17.528 12.533 4.805 5.452 8.453 12.03 10.944 19.733 2.491 7.704 3.737 16.356 3.737 25.956 0 9.6-1.424 18.4-4.27 26.4-2.848 8-6.852 14.874-12.013 20.622-5.16 5.748-11.359 10.252-18.596 13.511-7.237 3.26-15.244 4.889-24.023 4.889-17.44 0-30.816-5.393-40.129-16.178-9.313-10.785-13.969-26.252-13.969-46.4zM220.444 90C196.148 90 184 106.333 184 139s11.555 49 34.667 49c11.852 0 21.037-4.158 27.555-12.473 6.519-8.315 9.778-20.788 9.778-37.418C256 106.036 244.148 90 220.444 90zm107.247 1.171v95.658h36.35l3.547-20.372H380V201h-86v-10.629l15.072-3.542V91.17L294 87.63v-9.743L342.763 77v10.629L327.69 91.17zm136.487 0h-38.317v38.086h40.99v14.172h-40.99v43.4h40.99l3.565-17.715H482V201h-90v-10.629l15.149-3.542V91.17L392 87.63v-9.743L425.861 77h54.357v30.114h-11.584l-4.456-15.943z" fill="#A60013" fill-rule="nonzero"/></g></svg>