<?xml version="1.0" encoding="UTF-8"?>
<svg width="662px" height="216px" viewBox="0 0 662 216" version="1.1" xmlns="http://www.w3.org/2000/svg" xmlns:xlink="http://www.w3.org/1999/xlink">
    <!-- Generator: Sketch 55.2 (78181) - https://sketchapp.com -->
    <title>ROLEr</title>
    <desc>Created with Sketch.</desc>
    <g id="ROLEr" stroke="none" stroke-width="1" fill="none" fill-rule="evenodd">
        <g id="pole" transform="translate(405.000000, 157.000000)">
            <path d="M8.40112517,6.23877806 C-2.51530052,6.20696325 2.63162368,6.47670211 2.28702302,13.0520744 C29.5327402,14.4799619 118.862807,49.1842948 137.762039,61.7898804 C166.069173,46.4109941 229.33508,34.6586878 236.025447,25.3017862 C242.715815,15.9448845 19.3175509,6.27059288 8.40112517,6.23877806 Z" id="Path-9-Copy" stroke="#979797" fill="#F3F3F3" transform="translate(118.771903, 34.013334) scale(1, -1) rotate(-3.000000) translate(-118.771903, -34.013334) "></path>
            <path d="M133.842207,20.210576 C133.842207,20.210576 164.952928,28.8114858 227.17437,46.0133056 C233.187827,45.3327011 237.612633,43.6941948 240.448789,41.0977866 C238.739601,36.9399928 236.222316,35.0161801 229.461704,33.7781258 C221.246067,32.2736163 201.28749,30.098303 184.851833,28.4930189 C159.081414,25.706908 133.842207,20.210576 133.842207,20.210576 Z" id="Path-10-Copy" fill="#D8D8D8" transform="translate(187.145498, 33.111941) rotate(14.000000) translate(-187.145498, -33.111941) "></path>
        </g>
        <path d="M512.673781,191.614117 L508.442575,190.88933 L508.024037,15.6845464 L512.255242,16.4093332 L512.255242,54.5432824 C516.614585,42.3615432 523.025287,32.4309266 531.487541,24.7511346 C540.206227,17.3361629 549.437638,13.6287327 559.182051,13.6287327 L568.028909,13.6287327 L568.028909,31.90125 C567.259613,31.90125 531.388142,7.68886932 512.706406,60.9952213 L512.673781,191.614117 Z" id="Path" fill="#A60013" fill-rule="nonzero" transform="translate(538.026473, 102.621425) rotate(4.000000) translate(-538.026473, -102.621425) "></path>
        <g id="man" transform="translate(505.000000, 71.000000)">
            <path d="M60.0790126,64.4184272 L50.1775776,76.1036513 C47.8887462,79.4931629 46.7443304,83.096146 46.7443304,86.9126007 C46.7443304,90.7290553 48.9667775,99.4053719 53.4116715,112.94155 L55.4649033,118.936456 C54.3881737,122.93306 51.4813161,122.93306 46.7443304,118.936456 C42.0073448,114.939852 42.0073448,117.678536 46.7443304,127.152507 L66.1395218,130.317093 L75.2646493,121.023271 L66.1395218,106.98257 L66.1395218,93.2089699 L75.2646493,86.9126007 C85.4790024,96.3199271 92.1799262,103.009917 95.3674208,106.98257 C98.5549154,110.955224 103.572538,118.733398 110.420289,130.317093 L101.698154,127.152507 L99.2739501,130.317093 L107.82739,136.918049 L123.283251,136.918049 L127.962964,130.317093 L123.283251,124.895436 L127.962964,121.023271 L119.679747,115.298589 L107.82739,95.2973464 L101.698154,93.2089699 L99.2739501,70.1103075 L99.2739501,56.9443199 L95.3674208,48.4505838 L60.0790126,64.4184272 Z" id="Path" fill="#000000"></path>
            <polygon id="Path-8" fill="#000000" points="28.5931577 20.3454082 29.8148973 24.0976594 34.0021357 20.3454082 34.0021357 22.2215338 40.3285902 24.0976594 44.8481977 15.0528455 43.4466312 6.45058384"></polygon>
            <polygon id="Path-3" stroke="#000000" fill="#FFFFFF" points="9.02757156 26.2005126 7.32797418 23.2935157 2.30143548 24.7470142 0 28.1254628 0 33.612617 4.51378578 35.6660919 7.32797418 35.6660919"></polygon>
            <polygon id="Path-4" stroke="#000000" fill="#FFFFFF" points="7.39858548 48.4505838 2.40735242 48.4505838 0 43.6845789 0 38.4626275 2.40735242 35.6660919 7.39858548 35.6660919 9.02757156 40.9758969 9.02757156 45.4014185"></polygon>
            <polygon id="Path-5" stroke="#000000" fill="#CA881C" points="6.13423288 48.4505838 12.5499255 52.4814321 17.8063615 54.0217436 29.8956715 51.2361637 40.4988601 46.5697891 58.11063 34.0551692 55.0480705 23.2935157 48.1454062 20.6028971 34.1972129 32.7455761 19.6833081 39.6309981 9.02757156 39.6309981"></polygon>
            <polygon id="Path-6" stroke="#000000" fill="#F5A623" points="43.1915912 5.64644016 39.1712036 20.6028971 32.1224314 23.2935157 34.1972129 32.7455761 41.1006982 42.0583379 43.1915912 52.3221462 46.782444 56.268989 52.6054124 57.3848116 52.6054124 61.3669601 58.11063 64.5354365 64.2521703 66.5708481 68.2950638 75.8816858 89.6697722 61.3669601 102.078475 61.3669601 97.193159 46.6404004 80.4131244 32.7455761 73.7575997 26.2005126 58.11063 13.4695145 49.2423444 11.5408409"></polygon>
            <path d="M27.6026365,21.6854459 C28.5738317,21.9711166 33.7701499,16.6247813 43.1915912,5.64644016 L38.3869145,2.47876609 L29.8956715,-1.77635684e-14 L24.3026003,3.89429485 C23.6677786,5.51601032 23.3503678,7.50763155 23.3503678,9.86915855 C23.3503678,13.411449 25.3957991,15.1693543 24.3026003,16.9677421 C24.6831746,20.5686532 26.9743581,21.5006421 27.6026365,21.6854459 Z" id="Path-7" stroke="#000000" fill="#D50208"></path>
            <path d="M10.2750602,24.5502735 L6.13423288,30.5436172 L8.20464652,38.558172 L20.2764623,42.5318667 L34.1156663,42.5318667 L60.1789798,30.5436172 C62.840921,29.6434709 64.4822553,27.4610875 65.1029827,23.9964672 C66.0340737,18.7995367 64.7802346,15.5581938 63.2435981,13.4382986 C61.7069617,11.3184034 59.6802603,10.5363619 57.653247,9.86915855 C56.3019048,9.42435634 54.2083211,10.1249583 51.3724961,11.9709643 L44.5931577,18.5569297 L34.1156663,26.2005126 L23.6441061,28.2881081 L10.2750602,24.5502735 Z" id="Path-2" stroke="#000000" fill="#F5A623"></path>
            <polygon id="Path-11" stroke="#000000" stroke-linejoin="round" points="57.5931577 58.8878245 69.3844557 46.4505838 72.5128649 52.6692042 62.7054687 62.1245327 61.1184263 63.6546031"></polygon>
            <polygon id="Path-12" stroke="#000000" stroke-linejoin="round" points="70.5790662 48.5712331 80.0421833 56.8166115 70.5790662 68.8437055 62.7054687 62.1245327 72.5128649 52.6692042"></polygon>
            <polygon id="Path-13" fill="#CA881C" points="53.1387628 56.9468543 68.8428339 45.0017169 47.1788984 55.8975905"></polygon>
            <polygon id="Path-14" fill="#CA881C" points="40.3593976 40.2522738 62.7054687 29.9433195 42.5778419 46.9901424 41.527497 41.7963525"></polygon>
        </g>
        <path d="M511.264003,184.183919 C501.61479,179.898733 488.358667,180.680832 471.495635,186.530216 C385.312726,198.50404 214.644565,157.102499 82.7885641,182.283492 C44.1252564,182.283492 0,212.703143 0,216 C225.409482,215.525313 464.746504,215.525313 662,216 C662,203 648.627585,208.56537 636.36587,204.607148 C624.104154,200.648927 587.168642,204.973399 575.54012,198.50404 C563.911597,192.03468 540.834276,181.025751 536.801196,186.530216 C534.112476,190.199859 531.128343,188.784284 527.848799,182.283492 L511.264003,184.183919 Z" id="Path-9" stroke="#979797" fill="#F3F3F3"></path>
        <polygon id="Path-10" fill="#D8D8D8" points="56 201 482 201 269 188"></polygon>
        <path d="M56,201 L56,190.371429 L71.0571429,186.828571 L71.0571429,91.1714286 L56,87.6285714 L56,77.8857143 L89.6571429,77 L108.257143,77 C121.36578,77 131.433298,80.2475866 138.46,86.7428571 C145.486702,93.2381277 149,102.095182 149,113.314286 C149,126.895306 144.837184,137.228536 136.511429,144.314286 C128.185673,151.400035 116.40579,154.942857 101.171429,154.942857 L89.6571429,154.942857 L89.6571429,186.828571 L104.714286,190.371429 L104.714286,201 L56,201 Z M89,91 L89,141 L100.586957,141 C120.19575,141 130,132.66675 130,116 C130,108.619011 127.97973,102.607166 123.93913,97.9642857 C119.898531,93.3214054 114.19424,91 106.826087,91 L89,91 Z M164,140.422222 C164,130.466617 165.334632,121.4593 168.003937,113.4 C170.673242,105.3407 174.558505,98.4370658 179.659843,92.6888889 C184.76118,86.940712 190.841172,82.5555707 197.9,79.5333333 C204.958828,76.511096 212.818329,75 221.47874,75 C230.139151,75 237.909677,76.4518373 244.790551,79.3555556 C251.671425,82.2592738 257.514149,86.4370098 262.318898,91.8888889 C267.123646,97.340768 270.771641,103.91848 273.262992,111.622222 C275.754343,119.325964 277,127.97773 277,137.577778 C277,147.177826 275.576392,155.977738 272.729134,163.977778 C269.881876,171.977818 265.877979,178.851823 260.717323,184.6 C255.556667,190.348177 249.358041,194.851836 242.12126,198.111111 C234.884478,201.370387 226.876684,203 218.097638,203 C200.658181,203 187.282199,197.607461 177.969291,186.822222 C168.656384,176.036983 164,160.570471 164,140.422222 Z M220.444444,90 C196.148027,90 184,106.33317 184,139 C184,171.66683 195.55544,188 218.666667,188 C230.518578,188 239.703671,183.842466 246.222222,175.527273 C252.740773,167.21208 256,154.739477 256,138.109091 C256,106.036203 244.148267,90 220.444444,90 Z M327.690722,91.1714286 L327.690722,186.828571 L364.041237,186.828571 L367.587629,166.457143 L380,166.457143 L380,201 L294,201 L294,190.371429 L309.072165,186.828571 L309.072165,91.1714286 L294,87.6285714 L294,77.8857143 L342.762887,77 L342.762887,87.6285714 L327.690722,91.1714286 Z M464.178218,91.1714286 L425.861386,91.1714286 L425.861386,129.257143 L466.851485,129.257143 L466.851485,143.428571 L425.861386,143.428571 L425.861386,186.828571 L466.851485,186.828571 L470.415842,169.114286 L482,169.114286 L482,201 L392,201 L392,190.371429 L407.148515,186.828571 L407.148515,91.1714286 L392,87.6285714 L392,77.8857143 L425.861386,77 L480.217822,77 L480.217822,107.114286 L468.633663,107.114286 L464.178218,91.1714286 Z" id="POLE" fill="#A60013" fill-rule="nonzero"></path>
    </g>
</svg>